<svg width="50" height="50" viewBox="0 0 50 50" fill="none" xmlns="http://www.w3.org/2000/svg">
<rect width="35" height="27" transform="translate(7 11)" fill="#2B96B8"/>
<path d="M22.067 0.109356C18.7523 0.482231 14.7874 1.8672 11.8883 3.65699C9.54344 5.11653 6.85752 7.50293 5.25877 9.56972C2.53022 13.0961 0.81422 17.1551 0.142742 21.6615C-0.070426 23.1104 -0.0384509 27.1161 0.196034 28.6396C1.29385 35.7242 5.21613 41.9033 11.1422 45.8558C14.2012 47.8906 17.7824 49.2649 21.4382 49.8082C23.1862 50.0639 26.81 50.0639 28.558 49.8082C32.9386 49.1584 37.2446 47.2833 40.6659 44.5454C45.5581 40.6249 48.8089 34.9891 49.8002 28.7248C50.0666 27.0309 50.0666 23.0039 49.8002 21.3099C48.9155 15.7275 46.2935 10.7097 42.254 6.86372C38.3104 3.11366 33.0771 0.673996 27.748 0.0987015C26.5329 -0.0397949 23.2821 -0.0291405 22.067 0.109356ZM20.852 10.9973C21.6727 11.2104 22.3868 11.498 23.6445 12.1053C23.6871 12.1266 23.7191 12.0413 23.7191 11.9242C23.7191 11.5087 24.0388 11.7111 24.721 12.5634C24.9661 12.883 25.0834 13.1174 25.0407 13.2345C24.9874 13.3624 25.0194 13.3944 25.1473 13.3411C25.2432 13.3091 25.3178 13.2345 25.3178 13.1706C25.3178 13.1174 25.5843 12.7871 25.9147 12.4355C26.4157 11.9242 26.6608 11.7537 27.3643 11.4874C28.8564 10.9121 29.4 10.8162 31.1267 10.8055C32.5655 10.7949 33.237 10.8375 34.0577 11.008C34.1963 11.0293 34.4841 11.0825 34.6972 11.1145C34.9104 11.1465 35.1768 11.1891 35.3048 11.2104C35.422 11.2423 35.7098 11.2849 35.9336 11.3169C36.1681 11.3595 36.637 11.4341 36.9888 11.4874C37.3405 11.5513 37.7775 11.6259 37.9587 11.6472C38.2358 11.7004 38.385 11.8496 38.8114 12.4888L39.3336 13.2772L41.0603 13.6181L42.7976 13.9696V23.6431V33.3272H42.3499C42.0941 33.3272 40.7618 33.2313 39.3869 33.1141C38.012 32.9969 35.7844 32.8371 34.4308 32.7412C33.0878 32.656 31.116 32.5068 30.0715 32.4216C28.4088 32.2831 28.1423 32.2831 27.9931 32.411C27.8759 32.5175 27.3003 32.6027 25.9893 32.6773C24.9768 32.7412 24.0282 32.7945 23.8683 32.7945H23.5805L23.6551 33.8812C23.6871 34.4884 23.7937 35.8308 23.8896 36.8642C23.9749 37.9082 24.0388 38.8564 24.0175 38.9842C23.9855 39.1866 23.9536 39.1653 23.7191 38.8138C23.5699 38.59 23.3993 38.3876 23.3247 38.3663C23.2608 38.3343 23.0689 38.5155 22.909 38.7498C22.7492 38.9949 22.5893 39.1866 22.5467 39.1866C22.4721 39.1866 22.4401 38.8564 22.1736 35.2448C21.9498 32.2405 21.9818 32.3684 21.5021 32.3684C21.289 32.3684 20.5855 32.411 19.9354 32.4749C19.2959 32.5282 17.9209 32.624 16.8977 32.688C15.8745 32.7519 13.4657 32.9223 11.5579 33.0608C9.65002 33.21 7.89139 33.3272 7.64624 33.3272H7.19859V23.6431V13.959L7.44374 13.9057C7.57164 13.8738 8.32838 13.7459 9.13842 13.6074L10.588 13.373L11.0356 12.5634L11.4833 11.743L14.0626 11.3915C15.4695 11.1891 17.0363 10.9653 17.5372 10.9014C18.9868 10.6883 19.7542 10.7203 20.852 10.9973Z" fill="white"/>
<circle cx="25" cy="25" r="24.5" stroke="#2B96B8"/>
<path d="M29.7417 11.6579C29.326 11.7218 28.4947 11.9562 27.8765 12.1693C26.9279 12.4889 26.6934 12.6167 26.3204 13.0002C26.0752 13.2666 25.7874 13.7247 25.6489 14.0763C25.4251 14.6942 25.4251 14.7474 25.4464 21.896L25.4783 29.0978L25.9793 28.7143C26.736 28.1283 27.0451 28.0111 28.2815 27.7874C29.6991 27.5317 32.9712 27.4997 34.8044 27.7235C35.4759 27.8087 36.3286 27.9046 36.7016 27.9365L37.3624 28.0005V20.1914V12.3823L35.5825 12.0308C34.4847 11.8071 33.3549 11.6579 32.6727 11.6259C32.0546 11.6046 31.3085 11.5727 31.0207 11.562C30.7223 11.5407 30.1467 11.5833 29.7417 11.6579Z" fill="white"/>
<path d="M18.177 11.7325C18.145 11.7645 17.4522 11.839 16.6315 11.903C14.6384 12.0628 12.7092 12.3398 12.6133 12.4889C12.4854 12.6807 12.5067 27.8727 12.6346 27.9472C12.8051 28.0538 21.7369 27.7768 21.8115 27.6702C21.8434 27.617 21.9287 26.8393 22.0033 25.9444C22.2058 23.4301 22.3231 22.3541 22.6535 20.2234C22.8134 19.1367 23.1118 17.0806 23.293 15.653C23.6234 13.1494 23.634 13.0429 23.4422 12.9044C22.8773 12.4889 20.4365 11.8284 19.1362 11.7432C18.6353 11.7005 18.2089 11.7005 18.177 11.7325Z" fill="white"/>
<path d="M11.6131 13.5223C11.5385 13.6075 11.1654 14.1402 10.7817 14.7155L10.0781 15.7702V23.1105C10.0781 27.1482 10.1101 30.4508 10.1634 30.4508C10.206 30.4508 10.5898 29.9288 11.0162 29.2896L11.7837 28.139L11.7624 20.7561C11.741 15.2056 11.6984 13.4051 11.6131 13.5223Z" fill="white"/>
<path d="M38.2148 20.788V28.0537L38.9077 29.1617C39.2808 29.7689 39.6432 30.3229 39.7072 30.3868C39.7818 30.4614 39.8138 28.2881 39.8138 23.185V15.8767L39.0996 14.6941C38.7159 14.0443 38.3534 13.5116 38.3001 13.5116C38.2575 13.5116 38.2148 16.7822 38.2148 20.788Z" fill="white"/>
<path d="M24.4431 18.3056C24.1766 18.8809 23.3984 25.3903 23.3984 27.0416V28.2987L23.9421 28.6396C24.2406 28.8207 24.507 28.9486 24.5284 28.9272C24.5497 28.9059 24.5603 26.4663 24.5497 23.5152C24.5284 20.5642 24.4857 18.2204 24.4431 18.3056Z" fill="white"/>
<path d="M16.9525 28.075C16.1318 28.1282 14.0321 28.32 13.4352 28.3946C12.9876 28.4585 12.945 28.4798 13.1688 28.5437C13.4033 28.6076 13.3926 28.6183 13.0622 28.6289C12.4014 28.6502 12.2522 28.7461 11.8578 29.4173C11.6446 29.7795 11.3036 30.3548 11.0904 30.6851C10.792 31.1964 10.76 31.303 10.9092 31.303C11.3036 31.303 16.2597 30.9727 18.8497 30.7703C20.3632 30.6531 21.6422 30.5572 21.6955 30.5572C21.8873 30.5572 21.8234 29.7369 21.6209 29.6623C21.4717 29.5984 21.4717 29.5771 21.6529 29.4386C21.8234 29.3214 21.834 29.2681 21.7168 29.151C21.6209 29.0551 21.0773 29.0125 19.6917 28.9912C18.6472 28.9805 17.7306 28.9485 17.6453 28.9166C17.56 28.8846 17.3149 28.842 17.1124 28.8207C16.9099 28.7887 17.8798 28.7781 19.276 28.7887C21.7275 28.7994 21.8127 28.7887 21.7808 28.597C21.7381 28.3413 21.4823 28.2667 20.0967 28.1176C19.0842 28.011 18.1889 27.9897 16.9525 28.075Z" fill="white"/>
<path d="M29.0794 28.32C28.0029 28.4372 27.2461 28.629 26.8305 28.874C26.3508 29.1617 25.6367 30.1311 25.6367 30.4827C25.6367 30.749 25.6687 30.7704 26.0417 30.7597C26.2549 30.7597 26.6279 30.6958 26.8518 30.6319C27.1822 30.5253 27.7791 30.5466 29.7295 30.6851C31.9785 30.8449 35.6236 31.1006 38.2456 31.2604L39.2901 31.3243L38.9917 30.781C38.8318 30.4827 38.4907 29.9181 38.2456 29.5132L37.7979 28.7781L36.0606 28.5331C34.1741 28.2668 30.5183 28.1496 29.0794 28.32Z" fill="white"/>
</svg>
